<?xml version="1.0" standalone="no"?>
<!DOCTYPE svg PUBLIC "-//W3C//DTD SVG 20010904//EN"
 "http://www.w3.org/TR/2001/REC-SVG-20010904/DTD/svg10.dtd">
<svg version="1.0" xmlns="http://www.w3.org/2000/svg"
 width="1024.000000pt" height="1024.000000pt" viewBox="0 0 1024.000000 1024.000000"
 preserveAspectRatio="xMidYMid meet">
<metadata>
Created by potrace 1.11, written by Peter Selinger 2001-2013
</metadata>
<g transform="translate(0.000000,1024.000000) scale(0.100000,-0.100000)"
fill="#000000" stroke="none">
<path d="M4928 8985 c-2 -1 -50 -6 -108 -9 -170 -11 -293 -27 -485 -61 -51 -9
-288 -66 -296 -71 -5 -3 -17 -7 -26 -9 -40 -9 -196 -57 -211 -65 -10 -5 -53
-22 -97 -39 -121 -45 -296 -124 -376 -170 -39 -23 -73 -41 -76 -41 -6 0 -144
-84 -216 -131 -32 -22 -62 -39 -67 -39 -5 0 -10 -3 -12 -8 -1 -4 -46 -38 -98
-76 -235 -171 -519 -437 -716 -671 -111 -133 -255 -326 -306 -412 -18 -30 -40
-66 -48 -78 -8 -13 -30 -50 -48 -82 -18 -32 -37 -65 -42 -73 -76 -124 -263
-571 -285 -678 -2 -9 -14 -57 -28 -107 -14 -49 -28 -101 -30 -115 -3 -14 -14
-68 -25 -120 -11 -52 -23 -115 -27 -140 -3 -25 -8 -54 -9 -65 -45 -275 -54
-793 -20 -1070 44 -344 124 -675 229 -945 69 -177 213 -472 273 -558 7 -9 36
-56 66 -104 47 -75 78 -119 199 -282 12 -17 34 -44 48 -60 142 -164 186 -212
278 -305 101 -102 192 -187 257 -241 16 -14 54 -46 84 -71 30 -25 82 -65 115
-90 33 -24 62 -46 65 -50 8 -8 197 -131 270 -174 36 -21 76 -45 90 -54 91 -55
312 -159 440 -207 36 -13 74 -28 85 -33 120 -54 499 -151 685 -177 25 -3 54
-8 65 -10 11 -2 40 -7 65 -9 25 -3 61 -7 80 -10 172 -20 592 -26 765 -11 50 4
110 9 135 12 48 4 111 12 151 19 13 2 65 11 114 19 50 9 131 25 180 36 50 11
99 22 110 24 36 8 297 87 314 96 9 4 52 22 96 38 44 17 105 42 135 55 30 14
58 25 63 26 12 2 147 71 242 124 177 100 413 255 423 280 2 4 8 7 14 7 5 0 27
15 50 32 316 256 588 536 809 833 41 55 79 107 84 117 6 9 39 63 75 120 35 57
73 119 83 138 11 19 36 67 57 105 164 301 325 794 365 1115 4 30 9 58 11 61 2
4 6 37 10 75 3 38 8 80 10 94 28 181 22 762 -10 955 -3 17 -8 53 -11 80 -4 28
-8 57 -10 65 -3 8 -7 33 -11 55 -3 22 -10 60 -16 85 -5 25 -12 54 -14 65 -17
85 -23 108 -56 225 -41 145 -109 338 -152 432 -59 130 -131 274 -166 333 -22
39 -43 78 -46 88 -4 9 -10 17 -15 17 -5 0 -9 7 -9 15 0 8 -4 15 -10 15 -5 0
-10 5 -10 11 0 15 -74 128 -163 248 -186 252 -456 538 -687 729 -186 153 -198
162 -208 162 -6 0 -12 3 -14 8 -7 18 -286 200 -381 249 -289 150 -499 237
-742 307 -120 34 -364 90 -440 100 -22 2 -69 9 -105 15 -36 6 -99 13 -140 16
-41 3 -91 8 -110 11 -37 6 -506 14 -512 9z m359 -2629 c10 -3 38 -8 63 -11
456 -62 904 -498 990 -965 6 -30 13 -66 16 -80 9 -42 11 -292 2 -340 -5 -25
-11 -63 -14 -85 -11 -87 -75 -259 -133 -360 -123 -216 -319 -402 -543 -516
-24 -12 -44 -21 -46 -20 -1 1 -16 -6 -33 -14 -43 -23 -138 -52 -206 -64 -32
-6 -74 -13 -93 -17 -62 -11 -250 -10 -345 2 -169 21 -353 89 -495 182 -30 20
-57 39 -60 42 -3 3 -27 23 -55 44 -67 52 -155 145 -220 232 -54 72 -135 208
-135 225 0 6 -8 26 -19 47 -21 42 -57 166 -66 227 -3 23 -8 52 -11 65 -3 14
-6 81 -8 150 -2 123 15 268 45 371 17 59 78 210 93 229 7 8 18 29 26 45 8 17
20 35 25 41 6 6 17 22 25 34 34 51 161 197 201 230 242 200 415 276 719 313
38 5 256 -1 277 -7z"/>
</g>
</svg>
