<?xml version="1.0" standalone="no"?>
<!DOCTYPE svg PUBLIC "-//W3C//DTD SVG 20010904//EN"
 "http://www.w3.org/TR/2001/REC-SVG-20010904/DTD/svg10.dtd">
<svg version="1.0" xmlns="http://www.w3.org/2000/svg"
 width="1024.000000pt" height="1024.000000pt" viewBox="0 0 1024.000000 1024.000000"
 preserveAspectRatio="xMidYMid meet">
<metadata>
Created by potrace 1.11, written by Peter Selinger 2001-2013
</metadata>
<g transform="translate(0.000000,1024.000000) scale(0.100000,-0.100000)"
fill="#000000" stroke="none">
<path d="M4957 9294 c-1 -1 -51 -4 -112 -8 -160 -9 -279 -21 -365 -36 -30 -5
-73 -12 -95 -15 -54 -7 -163 -27 -215 -40 -6 -1 -120 -26 -135 -30 -78 -16
-322 -95 -450 -146 -16 -7 -36 -13 -43 -15 -30 -6 -315 -143 -420 -201 -62
-35 -172 -103 -245 -151 -73 -48 -136 -89 -142 -91 -5 -2 -12 -8 -15 -12 -3
-4 -31 -25 -61 -46 -31 -21 -78 -56 -104 -78 -27 -22 -80 -67 -119 -99 -83
-70 -209 -190 -345 -330 -121 -125 -117 -121 -171 -186 -25 -30 -53 -64 -63
-75 -42 -45 -190 -249 -262 -361 -43 -65 -85 -130 -94 -144 -9 -14 -32 -54
-50 -90 -19 -36 -38 -71 -44 -77 -26 -34 -152 -313 -197 -438 -17 -49 -36 -99
-41 -110 -5 -11 -18 -50 -29 -87 -11 -38 -29 -98 -41 -135 -11 -38 -22 -75
-24 -83 -6 -26 -36 -164 -41 -190 -3 -14 -7 -32 -9 -40 -3 -8 -7 -33 -10 -55
-4 -22 -13 -80 -20 -130 -8 -49 -17 -117 -20 -150 -3 -33 -8 -78 -10 -100 -23
-216 -24 -665 -1 -845 2 -19 7 -69 11 -109 3 -41 8 -77 9 -80 2 -4 6 -28 10
-56 6 -54 10 -75 32 -205 3 -14 9 -38 14 -55 5 -16 11 -43 14 -60 23 -136 133
-484 204 -645 82 -188 187 -394 234 -462 10 -14 18 -31 18 -37 0 -6 5 -11 10
-11 6 0 10 -4 10 -9 0 -6 37 -65 83 -132 45 -67 87 -129 92 -138 6 -9 12 -18
15 -21 3 -3 25 -32 50 -65 41 -56 61 -81 85 -109 6 -6 35 -41 64 -76 112 -132
373 -393 506 -505 44 -37 96 -81 115 -97 19 -17 64 -51 100 -76 36 -26 67 -49
70 -53 11 -13 189 -129 199 -129 6 0 11 -4 11 -8 0 -5 12 -15 28 -23 15 -7 41
-23 57 -35 17 -12 64 -39 105 -60 41 -21 77 -41 80 -44 15 -15 312 -151 395
-180 28 -9 82 -29 120 -43 59 -21 154 -51 310 -97 17 -5 42 -12 58 -15 62 -12
85 -17 144 -30 62 -14 145 -29 238 -41 28 -3 52 -8 56 -9 3 -2 39 -7 80 -10
40 -4 90 -9 109 -11 146 -14 231 -17 410 -17 183 0 326 6 430 18 19 2 68 6
109 10 40 3 92 10 115 14 22 5 66 12 96 16 78 10 344 66 418 90 26 8 85 26
132 40 258 79 629 244 820 366 14 9 61 39 105 67 88 56 94 60 245 169 58 42
113 83 122 92 19 18 25 23 111 94 107 88 373 351 482 477 81 93 89 103 140
170 57 73 54 69 99 130 83 113 296 454 296 474 0 3 13 27 28 53 15 26 45 89
67 138 21 50 42 95 47 101 4 5 31 73 59 150 73 197 144 435 164 554 3 19 11
55 16 80 15 65 16 70 23 125 4 28 11 75 16 105 29 168 47 456 44 710 -2 159
-6 221 -19 360 -3 25 -7 68 -9 95 -16 165 -80 494 -126 650 -12 39 -23 77 -25
85 -23 89 -119 341 -180 475 -116 254 -265 502 -451 750 -45 61 -90 119 -101
130 -10 11 -41 47 -68 80 -67 81 -56 68 -186 201 -284 289 -474 448 -743 622
-56 35 -119 77 -141 92 -22 15 -53 34 -70 42 -16 8 -57 30 -90 48 -74 40 -212
110 -219 110 -3 0 -38 15 -78 34 -40 18 -107 46 -148 61 -41 14 -84 30 -95 35
-31 12 -101 35 -210 69 -90 27 -141 40 -215 55 -14 3 -65 14 -115 24 -49 11
-108 22 -130 25 -22 3 -69 10 -105 16 -65 10 -109 15 -230 26 -36 3 -85 8
-110 11 -42 5 -468 12 -473 8z m161 -1210 l2 -269 -117 -4 c-65 -1 -120 -4
-123 -6 -3 -1 -41 -6 -85 -10 -44 -4 -123 -15 -175 -25 -52 -11 -106 -21 -120
-24 -101 -19 -420 -125 -448 -149 -8 -6 -17 -11 -19 -9 -4 3 -147 -65 -218
-105 -394 -220 -824 -648 -1049 -1043 -48 -84 -146 -289 -146 -305 0 -6 -3
-15 -7 -18 -32 -33 -142 -449 -159 -602 -3 -27 -7 -56 -10 -64 -4 -12 -11
-131 -18 -281 l-2 -45 -268 0 -269 0 2 90 c3 97 5 129 16 245 13 140 15 155
20 180 7 33 13 63 26 135 27 151 111 432 175 585 34 82 147 304 176 347 15 23
28 44 28 47 0 13 163 254 211 311 9 11 52 63 95 115 118 142 297 318 488 478
186 156 546 373 751 452 33 13 65 26 70 30 12 9 286 98 318 104 12 2 58 13
102 24 81 20 227 46 320 57 110 13 135 15 260 21 72 3 131 8 133 9 2 2 11 2
20 1 15 -3 17 -29 20 -272z m197 -1358 c28 -4 61 -8 75 -11 14 -3 41 -7 60
-10 89 -15 246 -64 345 -110 127 -59 296 -167 371 -240 12 -11 41 -39 65 -61
63 -59 140 -143 174 -189 17 -22 38 -49 48 -59 9 -11 17 -23 17 -27 0 -4 6
-14 13 -21 33 -37 138 -254 170 -353 57 -173 81 -328 81 -520 1 -206 -21 -348
-82 -530 -14 -44 -27 -82 -27 -85 -4 -15 -79 -162 -105 -205 -16 -27 -33 -57
-37 -65 -3 -8 -9 -17 -12 -20 -4 -3 -25 -31 -49 -63 -81 -109 -215 -244 -329
-331 -345 -265 -774 -369 -1248 -301 -44 6 -201 43 -225 52 -8 4 -18 7 -22 8
-5 2 -10 4 -13 5 -3 1 -8 3 -12 5 -53 14 -191 79 -273 127 -127 74 -244 169
-349 282 -20 21 -47 50 -61 65 -44 45 -124 155 -172 236 -51 86 -138 288 -153
356 -2 8 -10 44 -19 80 -16 63 -18 77 -32 194 -9 76 -10 304 -1 370 4 28 9 66
12 85 4 29 12 70 20 100 1 3 5 23 10 45 20 99 132 373 157 383 4 2 8 8 8 13 0
11 58 105 84 135 8 11 29 37 46 59 107 137 287 295 440 387 122 73 317 156
405 171 11 2 38 9 60 15 22 6 65 14 95 18 30 3 78 9 105 13 60 8 289 6 360 -3z"/>
<path d="M5020 5650 c-94 -27 -121 -38 -172 -68 -32 -19 -77 -54 -100 -79 -24
-25 -51 -54 -60 -64 -10 -11 -18 -22 -18 -25 0 -3 -8 -18 -19 -32 -15 -23 -34
-67 -48 -117 -25 -87 -24 -215 1 -296 37 -118 123 -232 230 -303 100 -66 276
-101 381 -75 22 5 48 12 59 14 34 8 141 62 166 84 14 12 34 30 45 40 107 95
164 220 170 375 2 48 0 100 -5 115 -4 14 -16 50 -25 80 -45 146 -183 281 -340
331 -72 23 -215 34 -265 20z"/>
</g>
</svg>
